<?xml version="1.0" encoding="UTF-8" standalone="no"?>
<!DOCTYPE svg PUBLIC "-//W3C//DTD SVG 1.1//EN"
 "http://www.w3.org/Graphics/SVG/1.1/DTD/svg11.dtd">
<!-- Generated by graphviz version 2.40.1 (20161225.0304)
 -->
<!-- Title: workflow Pages: 1 -->
<svg width="443pt" height="541pt"
 viewBox="0.00 0.00 455.50 556.00" xmlns="http://www.w3.org/2000/svg" xmlns:xlink="http://www.w3.org/1999/xlink">
<g id="graph0" class="graph" transform="scale(.9722 .9722) rotate(0) translate(4 552)">
<title>workflow</title>
<g id="clust1" class="cluster">
<title>cluster_inputs</title>
<polygon fill="transparent" stroke="#000000" stroke-dasharray="5,2" points="69.5,-485 69.5,-540 439.5,-540 439.5,-485 69.5,-485"/>
<text text-anchor="middle" x="112" y="-528" font-family="Times,serif" font-size="10.00" fill="#000000">Workflow Inputs</text>
</g>
<g id="clust2" class="cluster">
<title>cluster_outputs</title>
<polygon fill="transparent" stroke="#000000" stroke-dasharray="5,2" points="103.5,-8 103.5,-63 203.5,-63 203.5,-8 103.5,-8"/>
<text text-anchor="middle" x="149.5" y="-15" font-family="Times,serif" font-size="10.00" fill="#000000">Workflow Outputs</text>
</g>
<!-- sars_cov_2_reference_genome -->
<g id="node1" class="node">
<title>sars_cov_2_reference_genome</title>
<polygon fill="#94ddf4" stroke="#000000" points="77.5,-493.5 77.5,-512.5 229.5,-512.5 229.5,-493.5 77.5,-493.5"/>
<text text-anchor="middle" x="153.5" y="-500.5" font-family="Helvetica,sans-Serif" font-size="10.00" fill="#000000">sars_cov_2_reference_genome</text>
</g>
<!-- index_reference_genome_with_bowtie2 -->
<g id="node7" class="node">
<title>index_reference_genome_with_bowtie2</title>
<polygon fill="#fafad2" stroke="#000000" points="101,-440.5 101,-459.5 288,-459.5 288,-440.5 101,-440.5"/>
<text text-anchor="middle" x="194.5" y="-447.5" font-family="Helvetica,sans-Serif" font-size="10.00" fill="#000000">index_reference_genome_with_bowtie2</text>
</g>
<!-- sars_cov_2_reference_genome&#45;&gt;index_reference_genome_with_bowtie2 -->
<g id="edge2" class="edge">
<title>sars_cov_2_reference_genome&#45;&gt;index_reference_genome_with_bowtie2</title>
<path fill="none" stroke="#000000" d="M161.02,-493.279C167.0885,-485.4344 175.7348,-474.2574 182.7206,-465.2271"/>
<polygon fill="#000000" stroke="#000000" points="184.6823,-466.6952 187.0276,-459.6594 180.8066,-463.697 184.6823,-466.6952"/>
<text text-anchor="middle" x="202.5" y="-470.6" font-family="Helvetica,sans-Serif" font-size="8.00" fill="#000000">reference_in</text>
</g>
<!-- index_reference_genome_with_samtools -->
<g id="node16" class="node">
<title>index_reference_genome_with_samtools</title>
<polygon fill="#fafad2" stroke="#000000" points="0,-350.5 0,-369.5 193,-369.5 193,-350.5 0,-350.5"/>
<text text-anchor="middle" x="96.5" y="-357.5" font-family="Helvetica,sans-Serif" font-size="10.00" fill="#000000">index_reference_genome_with_samtools</text>
</g>
<!-- sars_cov_2_reference_genome&#45;&gt;index_reference_genome_with_samtools -->
<g id="edge17" class="edge">
<title>sars_cov_2_reference_genome&#45;&gt;index_reference_genome_with_samtools</title>
<path fill="none" stroke="#000000" d="M135.418,-493.3853C123.5034,-485.9812 108.8004,-474.555 101.5,-460 88.1627,-433.409 90.4229,-397.6807 93.3871,-376.9152"/>
<polygon fill="#000000" stroke="#000000" points="95.8484,-377.0371 94.5266,-369.7394 91.009,-376.2685 95.8484,-377.0371"/>
<text text-anchor="middle" x="113" y="-425.6" font-family="Helvetica,sans-Serif" font-size="8.00" fill="#000000">sequences</text>
</g>
<!-- rnaseq_left_reads -->
<g id="node2" class="node">
<title>rnaseq_left_reads</title>
<polygon fill="#94ddf4" stroke="#000000" points="337.5,-493.5 337.5,-512.5 431.5,-512.5 431.5,-493.5 337.5,-493.5"/>
<text text-anchor="middle" x="384.5" y="-500.5" font-family="Helvetica,sans-Serif" font-size="10.00" fill="#000000">rnaseq_left_reads</text>
</g>
<!-- align_rnaseq_reads_to_genome -->
<g id="node13" class="node">
<title>align_rnaseq_reads_to_genome</title>
<polygon fill="#fafad2" stroke="#000000" points="194.5,-395.5 194.5,-414.5 348.5,-414.5 348.5,-395.5 194.5,-395.5"/>
<text text-anchor="middle" x="271.5" y="-402.5" font-family="Helvetica,sans-Serif" font-size="10.00" fill="#000000">align_rnaseq_reads_to_genome</text>
</g>
<!-- rnaseq_left_reads&#45;&gt;align_rnaseq_reads_to_genome -->
<g id="edge13" class="edge">
<title>rnaseq_left_reads&#45;&gt;align_rnaseq_reads_to_genome</title>
<path fill="none" stroke="#000000" d="M378.8564,-493.4702C370.6354,-480.1988 354.283,-455.9851 335.5,-440 325.1806,-431.2178 312.3069,-423.6625 300.8169,-417.8428"/>
<polygon fill="#000000" stroke="#000000" points="301.6054,-415.5009 294.2414,-414.6206 299.4492,-419.901 301.6054,-415.5009"/>
<text text-anchor="middle" x="363" y="-448.1" font-family="Helvetica,sans-Serif" font-size="8.00" fill="#000000">filelist</text>
</g>
<!-- rnaseq_right_reads -->
<g id="node3" class="node">
<title>rnaseq_right_reads</title>
<polygon fill="#94ddf4" stroke="#000000" points="234,-493.5 234,-512.5 333,-512.5 333,-493.5 234,-493.5"/>
<text text-anchor="middle" x="283.5" y="-500.5" font-family="Helvetica,sans-Serif" font-size="10.00" fill="#000000">rnaseq_right_reads</text>
</g>
<!-- rnaseq_right_reads&#45;&gt;align_rnaseq_reads_to_genome -->
<g id="edge12" class="edge">
<title>rnaseq_right_reads&#45;&gt;align_rnaseq_reads_to_genome</title>
<path fill="none" stroke="#000000" d="M285.7171,-493.4847C288.2512,-481.0412 291.5571,-458.633 287.5,-440 286.0901,-433.5248 283.3709,-426.8131 280.5685,-421.0202"/>
<polygon fill="#000000" stroke="#000000" points="282.7006,-419.8091 277.3141,-414.7112 278.3458,-422.0554 282.7006,-419.8091"/>
<text text-anchor="middle" x="311.5" y="-448.1" font-family="Helvetica,sans-Serif" font-size="8.00" fill="#000000">filelist_mates</text>
</g>
<!-- indels -->
<g id="node4" class="node">
<title>indels</title>
<polygon fill="#94ddf4" stroke="#000000" points="153.5,-35.5 153.5,-54.5 195.5,-54.5 195.5,-35.5 153.5,-35.5"/>
<text text-anchor="middle" x="174.5" y="-42.5" font-family="Helvetica,sans-Serif" font-size="10.00" fill="#000000">indels</text>
</g>
<!-- snps -->
<g id="node5" class="node">
<title>snps</title>
<polygon fill="#94ddf4" stroke="#000000" points="111.5,-35.5 111.5,-54.5 149.5,-54.5 149.5,-35.5 111.5,-35.5"/>
<text text-anchor="middle" x="130.5" y="-42.5" font-family="Helvetica,sans-Serif" font-size="10.00" fill="#000000">snps</text>
</g>
<!-- update_read_group -->
<g id="node6" class="node">
<title>update_read_group</title>
<polygon fill="#fafad2" stroke="#000000" points="198,-350.5 198,-369.5 297,-369.5 297,-350.5 198,-350.5"/>
<text text-anchor="middle" x="247.5" y="-357.5" font-family="Helvetica,sans-Serif" font-size="10.00" fill="#000000">update_read_group</text>
</g>
<!-- mark_duplicates -->
<g id="node10" class="node">
<title>mark_duplicates</title>
<polygon fill="#fafad2" stroke="#000000" points="197.5,-305.5 197.5,-324.5 285.5,-324.5 285.5,-305.5 197.5,-305.5"/>
<text text-anchor="middle" x="241.5" y="-312.5" font-family="Helvetica,sans-Serif" font-size="10.00" fill="#000000">mark_duplicates</text>
</g>
<!-- update_read_group&#45;&gt;mark_duplicates -->
<g id="edge6" class="edge">
<title>update_read_group&#45;&gt;mark_duplicates</title>
<path fill="none" stroke="#000000" d="M246.2276,-350.4567C245.4957,-344.9678 244.5558,-337.9184 243.7071,-331.5532"/>
<polygon fill="#000000" stroke="#000000" points="246.1244,-331.1444 242.7706,-324.5296 241.2673,-331.792 246.1244,-331.1444"/>
<text text-anchor="middle" x="266" y="-335.6" font-family="Helvetica,sans-Serif" font-size="8.00" fill="#000000">bam_sorted</text>
</g>
<!-- index_reference_genome_with_bowtie2&#45;&gt;align_rnaseq_reads_to_genome -->
<g id="edge11" class="edge">
<title>index_reference_genome_with_bowtie2&#45;&gt;align_rnaseq_reads_to_genome</title>
<path fill="none" stroke="#000000" d="M210.8297,-440.4567C221.9572,-433.9536 236.833,-425.26 249.0694,-418.1088"/>
<polygon fill="#000000" stroke="#000000" points="250.3864,-420.1769 255.1938,-414.5296 247.914,-415.9463 250.3864,-420.1769"/>
<text text-anchor="middle" x="259" y="-425.6" font-family="Helvetica,sans-Serif" font-size="8.00" fill="#000000">indices_file</text>
</g>
<!-- select_snps -->
<g id="node8" class="node">
<title>select_snps</title>
<polygon fill="#fafad2" stroke="#000000" points="72,-80.5 72,-99.5 141,-99.5 141,-80.5 72,-80.5"/>
<text text-anchor="middle" x="106.5" y="-87.5" font-family="Helvetica,sans-Serif" font-size="10.00" fill="#000000">select_snps</text>
</g>
<!-- select_snps&#45;&gt;snps -->
<g id="edge21" class="edge">
<title>select_snps&#45;&gt;snps</title>
<path fill="none" stroke="#000000" d="M111.5898,-80.4567C114.6444,-74.7292 118.6053,-67.3025 122.1123,-60.727"/>
<polygon fill="#000000" stroke="#000000" points="124.2852,-61.859 125.4176,-54.5296 119.9616,-59.5531 124.2852,-61.859"/>
</g>
<!-- create_sequence_dictionary -->
<g id="node9" class="node">
<title>create_sequence_dictionary</title>
<polygon fill="#fafad2" stroke="#000000" points="52,-305.5 52,-324.5 189,-324.5 189,-305.5 52,-305.5"/>
<text text-anchor="middle" x="120.5" y="-312.5" font-family="Helvetica,sans-Serif" font-size="10.00" fill="#000000">create_sequence_dictionary</text>
</g>
<!-- create_sequence_dictionary&#45;&gt;select_snps -->
<g id="edge4" class="edge">
<title>create_sequence_dictionary&#45;&gt;select_snps</title>
<path fill="none" stroke="#000000" d="M86.7266,-305.4909C70.4884,-298.6482 54.5,-287.474 54.5,-270 54.5,-270 54.5,-270 54.5,-135 54.5,-121.0717 65.2993,-110.4926 77.0551,-103.1027"/>
<polygon fill="#000000" stroke="#000000" points="78.4039,-105.1529 83.2377,-99.5281 75.9513,-100.9109 78.4039,-105.1529"/>
<text text-anchor="middle" x="72" y="-200.6" font-family="Helvetica,sans-Serif" font-size="8.00" fill="#000000">reference</text>
</g>
<!-- call_plausible_haplotypes_and_detect_variants -->
<g id="node11" class="node">
<title>call_plausible_haplotypes_and_detect_variants</title>
<polygon fill="#fafad2" stroke="#000000" points="104.5,-170.5 104.5,-189.5 324.5,-189.5 324.5,-170.5 104.5,-170.5"/>
<text text-anchor="middle" x="214.5" y="-177.5" font-family="Helvetica,sans-Serif" font-size="10.00" fill="#000000">call_plausible_haplotypes_and_detect_variants</text>
</g>
<!-- create_sequence_dictionary&#45;&gt;call_plausible_haplotypes_and_detect_variants -->
<g id="edge8" class="edge">
<title>create_sequence_dictionary&#45;&gt;call_plausible_haplotypes_and_detect_variants</title>
<path fill="none" stroke="#000000" d="M121.6445,-305.3998C124.3644,-286.2478 132.7789,-242.7535 155.5,-215 163.0598,-205.7659 173.7408,-198.3983 183.9414,-192.8507"/>
<polygon fill="#000000" stroke="#000000" points="185.0949,-195.0126 190.1984,-189.6314 182.853,-190.6555 185.0949,-195.0126"/>
<text text-anchor="middle" x="157" y="-245.6" font-family="Helvetica,sans-Serif" font-size="8.00" fill="#000000">reference</text>
</g>
<!-- filer_out_low_quality_variants -->
<g id="node12" class="node">
<title>filer_out_low_quality_variants</title>
<polygon fill="#fafad2" stroke="#000000" points="83,-125.5 83,-144.5 226,-144.5 226,-125.5 83,-125.5"/>
<text text-anchor="middle" x="154.5" y="-132.5" font-family="Helvetica,sans-Serif" font-size="10.00" fill="#000000">filer_out_low_quality_variants</text>
</g>
<!-- create_sequence_dictionary&#45;&gt;filer_out_low_quality_variants -->
<g id="edge9" class="edge">
<title>create_sequence_dictionary&#45;&gt;filer_out_low_quality_variants</title>
<path fill="none" stroke="#000000" d="M112.1965,-305.3569C105.6084,-296.6999 97.5,-283.3362 97.5,-270 97.5,-270 97.5,-270 97.5,-180 97.5,-165.5894 108.8622,-155.0765 121.4409,-147.8534"/>
<polygon fill="#000000" stroke="#000000" points="122.62,-150.0014 127.6691,-144.5691 120.3344,-145.6671 122.62,-150.0014"/>
<text text-anchor="middle" x="115" y="-223.1" font-family="Helvetica,sans-Serif" font-size="8.00" fill="#000000">reference</text>
</g>
<!-- select_indels -->
<g id="node15" class="node">
<title>select_indels</title>
<polygon fill="#fafad2" stroke="#000000" points="145.5,-80.5 145.5,-99.5 219.5,-99.5 219.5,-80.5 145.5,-80.5"/>
<text text-anchor="middle" x="182.5" y="-87.5" font-family="Helvetica,sans-Serif" font-size="10.00" fill="#000000">select_indels</text>
</g>
<!-- create_sequence_dictionary&#45;&gt;select_indels -->
<g id="edge16" class="edge">
<title>create_sequence_dictionary&#45;&gt;select_indels</title>
<path fill="none" stroke="#000000" d="M189.2945,-305.8249C219.1543,-301.7928 248.148,-297.7885 251.5,-297 288.029,-288.4076 331.5,-307.526 331.5,-270 331.5,-270 331.5,-270 331.5,-135 331.5,-112.9225 270.7945,-100.695 226.8794,-94.7379"/>
<polygon fill="#000000" stroke="#000000" points="226.9733,-92.2794 219.7146,-93.8007 226.3377,-97.138 226.9733,-92.2794"/>
<text text-anchor="middle" x="349" y="-200.6" font-family="Helvetica,sans-Serif" font-size="8.00" fill="#000000">reference</text>
</g>
<!-- split_alignments -->
<g id="node17" class="node">
<title>split_alignments</title>
<polygon fill="#fafad2" stroke="#000000" points="171,-260.5 171,-279.5 258,-279.5 258,-260.5 171,-260.5"/>
<text text-anchor="middle" x="214.5" y="-267.5" font-family="Helvetica,sans-Serif" font-size="10.00" fill="#000000">split_alignments</text>
</g>
<!-- create_sequence_dictionary&#45;&gt;split_alignments -->
<g id="edge18" class="edge">
<title>create_sequence_dictionary&#45;&gt;split_alignments</title>
<path fill="none" stroke="#000000" d="M140.435,-305.4567C154.2685,-298.8342 172.8471,-289.9402 187.9361,-282.7167"/>
<polygon fill="#000000" stroke="#000000" points="189.3379,-284.762 194.5938,-279.5296 187.222,-280.3424 189.3379,-284.762"/>
<text text-anchor="middle" x="193" y="-290.6" font-family="Helvetica,sans-Serif" font-size="8.00" fill="#000000">reference</text>
</g>
<!-- mark_duplicates&#45;&gt;split_alignments -->
<g id="edge19" class="edge">
<title>mark_duplicates&#45;&gt;split_alignments</title>
<path fill="none" stroke="#000000" d="M235.774,-305.4567C232.3375,-299.7292 227.8815,-292.3025 223.9362,-285.727"/>
<polygon fill="#000000" stroke="#000000" points="225.9201,-284.2715 220.2178,-279.5296 221.7184,-286.7926 225.9201,-284.2715"/>
<text text-anchor="middle" x="240" y="-290.6" font-family="Helvetica,sans-Serif" font-size="8.00" fill="#000000">reads</text>
</g>
<!-- call_plausible_haplotypes_and_detect_variants&#45;&gt;filer_out_low_quality_variants -->
<g id="edge10" class="edge">
<title>call_plausible_haplotypes_and_detect_variants&#45;&gt;filer_out_low_quality_variants</title>
<path fill="none" stroke="#000000" d="M201.7755,-170.4567C193.423,-164.1922 182.3601,-155.8951 173.0362,-148.9021"/>
<polygon fill="#000000" stroke="#000000" points="174.2761,-146.7696 167.2061,-144.5296 171.3361,-150.6896 174.2761,-146.7696"/>
<text text-anchor="middle" x="202" y="-155.6" font-family="Helvetica,sans-Serif" font-size="8.00" fill="#000000">variant</text>
</g>
<!-- filer_out_low_quality_variants&#45;&gt;select_snps -->
<g id="edge3" class="edge">
<title>filer_out_low_quality_variants&#45;&gt;select_snps</title>
<path fill="none" stroke="#000000" d="M144.3204,-125.4567C137.8293,-119.3712 129.292,-111.3675 121.9716,-104.5047"/>
<polygon fill="#000000" stroke="#000000" points="123.4473,-102.5298 116.6649,-99.5296 120.096,-106.1046 123.4473,-102.5298"/>
<text text-anchor="middle" x="148" y="-110.6" font-family="Helvetica,sans-Serif" font-size="8.00" fill="#000000">variant</text>
</g>
<!-- filer_out_low_quality_variants&#45;&gt;select_indels -->
<g id="edge15" class="edge">
<title>filer_out_low_quality_variants&#45;&gt;select_indels</title>
<path fill="none" stroke="#000000" d="M160.4381,-125.4567C164.0019,-119.7292 168.6229,-112.3025 172.7143,-105.727"/>
<polygon fill="#000000" stroke="#000000" points="174.9525,-106.7674 176.5705,-99.5296 170.7921,-104.1786 174.9525,-106.7674"/>
<text text-anchor="middle" x="183" y="-110.6" font-family="Helvetica,sans-Serif" font-size="8.00" fill="#000000">variant</text>
</g>
<!-- align_rnaseq_reads_to_genome&#45;&gt;update_read_group -->
<g id="edge1" class="edge">
<title>align_rnaseq_reads_to_genome&#45;&gt;update_read_group</title>
<path fill="none" stroke="#000000" d="M266.4102,-395.4567C263.3556,-389.7292 259.3947,-382.3025 255.8877,-375.727"/>
<polygon fill="#000000" stroke="#000000" points="258.0384,-374.5531 252.5824,-369.5296 253.7148,-376.859 258.0384,-374.5531"/>
<text text-anchor="middle" x="274" y="-380.6" font-family="Helvetica,sans-Serif" font-size="8.00" fill="#000000">INPUT</text>
</g>
<!-- index_split_alignments -->
<g id="node14" class="node">
<title>index_split_alignments</title>
<polygon fill="#fafad2" stroke="#000000" points="157,-215.5 157,-234.5 272,-234.5 272,-215.5 157,-215.5"/>
<text text-anchor="middle" x="214.5" y="-222.5" font-family="Helvetica,sans-Serif" font-size="10.00" fill="#000000">index_split_alignments</text>
</g>
<!-- index_split_alignments&#45;&gt;call_plausible_haplotypes_and_detect_variants -->
<g id="edge7" class="edge">
<title>index_split_alignments&#45;&gt;call_plausible_haplotypes_and_detect_variants</title>
<path fill="none" stroke="#000000" d="M214.5,-215.4567C214.5,-209.9678 214.5,-202.9184 214.5,-196.5532"/>
<polygon fill="#000000" stroke="#000000" points="216.9501,-196.5296 214.5,-189.5296 212.0501,-196.5296 216.9501,-196.5296"/>
<text text-anchor="middle" x="223.5" y="-200.6" font-family="Helvetica,sans-Serif" font-size="8.00" fill="#000000">input</text>
</g>
<!-- select_indels&#45;&gt;indels -->
<g id="edge20" class="edge">
<title>select_indels&#45;&gt;indels</title>
<path fill="none" stroke="#000000" d="M180.8034,-80.4567C179.8276,-74.9678 178.5744,-67.9184 177.4428,-61.5532"/>
<polygon fill="#000000" stroke="#000000" points="179.8316,-60.9927 176.1941,-54.5296 175.0073,-61.8504 179.8316,-60.9927"/>
</g>
<!-- index_reference_genome_with_samtools&#45;&gt;create_sequence_dictionary -->
<g id="edge5" class="edge">
<title>index_reference_genome_with_samtools&#45;&gt;create_sequence_dictionary</title>
<path fill="none" stroke="#000000" d="M101.5898,-350.4567C104.6444,-344.7292 108.6053,-337.3025 112.1123,-330.727"/>
<polygon fill="#000000" stroke="#000000" points="114.2852,-331.859 115.4176,-324.5296 109.9616,-329.5531 114.2852,-331.859"/>
<text text-anchor="middle" x="136.5" y="-335.6" font-family="Helvetica,sans-Serif" font-size="8.00" fill="#000000">REFERENCE</text>
</g>
<!-- split_alignments&#45;&gt;index_split_alignments -->
<g id="edge14" class="edge">
<title>split_alignments&#45;&gt;index_split_alignments</title>
<path fill="none" stroke="#000000" d="M214.5,-260.4567C214.5,-254.9678 214.5,-247.9184 214.5,-241.5532"/>
<polygon fill="#000000" stroke="#000000" points="216.9501,-241.5296 214.5,-234.5296 212.0501,-241.5296 216.9501,-241.5296"/>
<text text-anchor="middle" x="236" y="-245.6" font-family="Helvetica,sans-Serif" font-size="8.00" fill="#000000">bam_sorted</text>
</g>
</g>
</svg>
